<?xml version="1.0" encoding="utf-8"?>
<!-- Generator: Adobe Illustrator 26.2.1, SVG Export Plug-In . SVG Version: 6.00 Build 0)  -->
<svg version="1.1" id="Layer_1" xmlns="http://www.w3.org/2000/svg" xmlns:xlink="http://www.w3.org/1999/xlink" x="0px" y="0px"
	 viewBox="0 0 224 50" style="enable-background:new 0 0 224 50;" xml:space="preserve">
<style type="text/css">
	.st0{fill:#E6007D;}
	.st1{fill:#009B9B;}
	.st2{fill:#0082C8;}
	.st3{fill:#F5B400;}
	.st4{fill:#787D82;}
</style>
<polygon class="st0" points="24.5,37.2 24.5,33.1 20.5,33.1 20.5,37.2 "/>
<polygon class="st0" points="20.5,33.1 20.5,29 16.4,29 16.4,33.1 "/>
<polygon class="st1" points="20.5,45.2 20.5,37.1 12.4,37.1 12.4,45.2 "/>
<polygon class="st2" points="12.4,37.2 12.4,25 0.2,25 0.2,37.2 "/>
<polygon class="st3" points="32.6,25 32.6,4.8 12.4,4.8 12.4,25 "/>
<rect x="48.8" y="14.6" class="st4" width="2.1" height="18.5"/>
<path class="st4" d="M61.1,19.5c-1.7,0.1-3.4,0.8-4.7,2l-0.3-1.7h-1.7V33h2.1v-9.7c1.1-1.1,2.5-1.8,4.1-2c1.9,0,2.4,1.5,2.4,3.5V33
	h2v-8.9C65,20.8,63.1,19.5,61.1,19.5z"/>
<path class="st4" d="M77.5,14.1c-0.7,0-1.4,0.6-1.4,1.3v0.1c0,0.7,0.5,1.3,1.3,1.4h0.1c0.7,0,1.4-0.6,1.4-1.3c0,0,0,0,0-0.1
	C78.9,14.8,78.4,14.1,77.5,14.1C77.6,14.1,77.6,14.1,77.5,14.1z"/>
<rect x="76.5" y="19.8" class="st4" width="2" height="13.2"/>
<path class="st4" d="M68.7,17.5v2.3h-1.8v1.7h1.8v11.6h2V21.5h2.7l0.7-1.7h-3.4v-2.4c0-1.5,0.6-2.4,1.9-2.4c0.5,0,1,0.1,1.4,0.3
	l0.4-1.7c-0.6-0.3-1.3-0.4-2-0.4C70.7,13.2,68.7,14.3,68.7,17.5z"/>
<path class="st4" d="M88.4,19.5c-1.7,0.1-3.4,0.8-4.7,2l-0.2-1.7h-1.7v13.3h2.1v-9.7c1.1-1.1,2.5-1.8,4.1-2c1.9,0,2.4,1.5,2.4,3.5
	v8.2h2v-8.9C92.3,20.8,90.5,19.5,88.4,19.5z"/>
<path class="st4" d="M96.3,14.1c-0.7,0-1.4,0.6-1.4,1.3v0.1c0,0.7,0.5,1.3,1.3,1.4h0.1c0.7,0,1.4-0.6,1.4-1.3c0,0,0,0,0-0.1
	C97.7,14.8,97.2,14.1,96.3,14.1C96.4,14.1,96.4,14.1,96.3,14.1z"/>
<rect x="95.3" y="19.8" class="st4" width="2" height="13.2"/>
<path class="st4" d="M104.8,31.6c-0.9,0-1.4-0.5-1.4-1.7v-8.4h3.3l0.6-1.7h-3.9v-3.7l-2,0.7v3h-2.3v1.7h2.2v8.8
	c-0.2,1.5,0.9,2.9,2.4,3.1c0.2,0,0.4,0,0.6,0c1.2,0,2.3-0.3,3.3-1l-0.7-1.5C106.3,31.4,105.6,31.6,104.8,31.6z"/>
<path class="st4" d="M118.6,24c0-3.2-2-4.5-4.7-4.5c-1.6,0-3.3,0.5-4.6,1.3l0.8,1.5c1.1-0.7,2.3-1.1,3.6-1.1
	c1.4-0.1,2.7,0.9,2.9,2.3c0,0.2,0,0.4,0,0.6V25l-2.5,0.1c-1.1,0-2.3,0.2-3.3,0.6c-1.4,0.6-2.3,2-2.2,3.6c-0.1,2.2,1.6,4,3.7,4.1
	c0.2,0,0.3,0,0.5,0c1.5,0,3-0.7,4-1.8l0.4,1.5h1.8c-0.2-1.5-0.3-3-0.2-4.5L118.6,24z M116.6,29.9c-0.9,1-2.1,1.6-3.5,1.7
	c-1.3,0.1-2.4-0.9-2.5-2.2c0-0.1,0-0.2,0-0.3c0-0.8,0.4-1.6,1.2-2c0.8-0.4,1.6-0.5,2.5-0.5l2.3-0.1V29.9z"/>
<path class="st4" d="M123,23c0-1.4,1.3-1.8,2.6-1.8c1.1,0,2.2,0.3,3.2,0.7v-1.8c-1-0.4-2.2-0.6-3.3-0.6c-2.9,0-4.5,1.6-4.5,3.6
	c0,4.4,6.2,3.5,6.2,6.3c0,1.5-1.3,2.1-2.8,2.1c-1.2,0-2.3-0.4-3.3-1l-0.7,1.6c1.2,0.7,2.6,1.1,4,1.1c2.7,0,4.9-1.3,4.9-3.9
	C129.2,25,123,26,123,23z"/>
<polygon class="st4" points="139.9,14.6 137.8,14.6 137.8,33.1 146.8,33.1 146.8,31.3 139.9,31.3 "/>
<path class="st4" d="M153,19.5c-3.2,0-5.4,2.8-5.4,6.8c0,3.9,2.1,7.1,6.2,7.1c1.5,0,3-0.4,4.2-1.2l-0.7-1.5c-1,0.6-2.1,0.9-3.2,0.9
	c-2.8,0-4.4-2.1-4.4-4.8h8.6v-0.5C158.3,22.1,156.4,19.5,153,19.5z M149.7,25.2c0-2.2,1.3-4,3.3-4s3.1,2,3.1,4H149.7z"/>
<path class="st4" d="M169.7,24c0-3.2-2-4.5-4.7-4.5c-1.6,0-3.3,0.5-4.6,1.3l0.8,1.5c1.1-0.7,2.3-1.1,3.6-1.1
	c1.4-0.1,2.7,0.9,2.9,2.4c0,0.2,0,0.4,0,0.5v0.8l-2.5,0.1c-1.1,0-2.3,0.2-3.3,0.6c-1.4,0.6-2.3,2-2.2,3.6c-0.1,2.2,1.6,4,3.7,4.1
	c0.2,0,0.3,0,0.5,0c1.5,0,3-0.7,4-1.8l0.4,1.5h1.8c-0.2-1.5-0.3-3-0.2-4.5L169.7,24z M167.6,29.9c-0.9,1-2.1,1.7-3.5,1.8
	c-1.3,0.1-2.4-0.9-2.5-2.1c0-0.1,0-0.2,0-0.3c0-0.8,0.4-1.6,1.1-2c0.8-0.4,1.6-0.5,2.5-0.5l2.3-0.1L167.6,29.9z"/>
<path class="st4" d="M174.5,21.5l-0.2-1.7h-1.7V33h2.1v-9.7c1.3-1.3,2.2-1.9,3.2-1.9c0.4,0,0.8,0.1,1.1,0.3l0.7-1.9
	c-0.4-0.2-0.9-0.3-1.4-0.3C177.1,19.5,175.9,19.9,174.5,21.5z"/>
<path class="st4" d="M187.6,19.5c-1.7,0.1-3.4,0.8-4.6,2l-0.2-1.7h-1.7v13.3h2.1v-9.7c1.1-1.1,2.5-1.9,4.1-2c1.9,0,2.4,1.5,2.4,3.5
	v8.2h2v-8.9C191.5,20.8,189.7,19.5,187.6,19.5z"/>
<path class="st4" d="M195.5,14.1c-0.7,0-1.3,0.6-1.4,1.3v0.1c0,0.7,0.5,1.3,1.3,1.4h0.1c0.8,0.1,1.4-0.5,1.5-1.3
	c0.1-0.8-0.5-1.4-1.3-1.5C195.7,14,195.6,14,195.5,14.1L195.5,14.1z"/>
<rect x="194.5" y="19.8" class="st4" width="2" height="13.2"/>
<path class="st4" d="M206.2,19.5c-1.7,0.1-3.4,0.8-4.6,2l-0.3-1.7h-1.7v13.3h2.1v-9.7c1.1-1.1,2.5-1.9,4.1-2c1.9,0,2.4,1.5,2.4,3.5
	v8.2h2v-8.9C210.1,20.8,208.3,19.5,206.2,19.5z"/>
<path class="st4" d="M215,30.3c0-0.6,0.3-1.1,0.7-1.5c0.6,0.2,1.1,0.3,1.7,0.3c3.1,0,5.1-1.9,5.1-4.8c0-1.3-0.5-2.5-1.5-3.4
	c0.4-0.2,0.8-0.4,1.3-0.4c0.3,0,0.5,0.1,0.8,0.1l0.5-1.6c-0.3-0.1-0.5-0.1-0.8-0.1c-1,0-2,0.3-2.7,1c-0.1,0.1-0.1,0.1-0.3,0
	c-0.8-0.3-1.6-0.5-2.5-0.5c-2.6,0-4.8,2.1-4.9,4.7c0,1.6,0.7,3.1,2,4c-0.8,0.6-1.3,1.6-1.4,2.6c0,0.7,0.4,1.3,1,1.7
	c-1.4,0.5-2.4,1.9-2.5,3.4c0,2.4,2.3,3.8,5.8,3.8c3.9,0,6.4-1.7,6.4-4.2C223.8,30.7,215,33,215,30.3z M217.5,21.2
	c1.6-0.1,3,1.2,3,2.8c0,0.1,0,0.2,0,0.2c0.1,1.6-1,3-2.6,3.1c-0.1,0-0.3,0-0.4,0c-1.6,0.1-2.9-1.2-3-2.8c0-0.1,0-0.2,0-0.4
	c-0.1-1.6,1.1-2.9,2.6-3C217.3,21.2,217.4,21.2,217.5,21.2z M217.6,38.1c-2.4,0-4.1-0.9-4.1-2.5c0-1.3,1.1-2,1.8-2.5
	c2.4,0.7,6.4,0.3,6.4,2.7C221.7,37,220.4,38.1,217.6,38.1z"/>
</svg>
